<svg xmlns="http://www.w3.org/2000/svg" viewBox="0 0 486.55 445.14"><defs><style>.cls-1{fill:#282827;}</style></defs><g id="Layer_2" data-name="Layer 2"><g id="Layer_1-2" data-name="Layer 1"><polygon class="cls-1" points="486.56 0 246.74 239.81 246.74 435.38 486.56 195.57 486.56 0"/><polygon class="cls-1" points="486.56 280.01 399.18 367.39 486.56 445.14 486.56 280.01"/><path class="cls-1" d="M206.84,206.84,11.93,11.93,0,0V440.08L220.05,220Zm-130.4,140L11.93,411.31V333h29v-8.65H11.93V297.62H27.45V289H11.93V262.26h29v-8.65H11.93V226.89H27.45v-8.65H11.93V191.53h29v-8.65H11.93V156.16H27.45v-8.64H11.93V120.8h29v-8.65H11.93V28.77L198.4,215.24l4.78,4.79Z"/><path class="cls-1" d="M65.53,312.66,158.17,220,65.53,127.42ZM77.46,156.18,141.33,220,77.46,283.9Z"/></g></g></svg>