<svg xmlns="http://www.w3.org/2000/svg" viewBox="0 0 398.48 56.17"><defs><style>.cls-1{fill:#282827;}</style></defs><g id="Layer_2" data-name="Layer 2"><g id="Layer_1-2" data-name="Layer 1"><polygon class="cls-1" points="60.2 0 30.53 29.67 30.53 53.87 60.2 24.2 60.2 0"/><polygon class="cls-1" points="60.2 34.64 49.39 45.45 60.2 55.07 60.2 34.64"/><path class="cls-1" d="M25.59,25.59,1.48,1.48,0,0V54.45L27.22,27.22ZM9.46,42.91l-8,8V41.2H5.06V40.13H1.48V36.82H3.4V35.75H1.48v-3.3H5.06V31.38H1.48V28.07H3.4V27H1.48V23.7H5.06V22.63H1.48V19.32H3.4V18.25H1.48V15H5.06V13.88H1.48V3.56L24.55,26.63l.59.59Z"/><path class="cls-1" d="M8.11,38.68,19.57,27.22,8.11,15.76ZM9.58,19.32l7.91,7.9-7.91,7.9Z"/><polygon class="cls-1" points="83.53 27.86 76.85 14.18 72.04 14.18 72.04 36.95 76.81 36.95 76.81 22.13 82.15 33.02 84.91 33.02 90.22 22.13 90.22 36.95 94.99 36.95 94.99 14.18 90.22 14.18 83.53 27.86"/><path class="cls-1" d="M107.4,19.84c-3.11,0-5.41.76-6.88,2.28a8.9,8.9,0,0,0-2.21,6.45A8.94,8.94,0,0,0,100.5,35q2.19,2.28,6.9,2.28T114.33,35a8.94,8.94,0,0,0,2.19-6.45,8.9,8.9,0,0,0-2.21-6.45C112.84,20.6,110.53,19.84,107.4,19.84Zm3.29,12.35a4.37,4.37,0,0,1-3.29,1.05,4.33,4.33,0,0,1-3.26-1.05,5.21,5.21,0,0,1-1-3.62,5.26,5.26,0,0,1,1-3.63,4.37,4.37,0,0,1,3.26-1,4.41,4.41,0,0,1,3.29,1,5.26,5.26,0,0,1,1,3.63A5.21,5.21,0,0,1,110.69,32.19Z"/><path class="cls-1" d="M131.9,21.11a8.38,8.38,0,0,0-4.7-1.27,7.85,7.85,0,0,0-4,1.06A7.56,7.56,0,0,0,120.23,24a10.6,10.6,0,0,0-1.09,5,10,10,0,0,0,1,4.83,5.79,5.79,0,0,0,2.74,2.62,9.48,9.48,0,0,0,4,.79,8.78,8.78,0,0,0,3.06-.48,7.45,7.45,0,0,0,2.39-1.43l.28,1.56h4.1V13.12H131.9Zm0,11.17a5.1,5.1,0,0,1-3.75,1.52,4.33,4.33,0,0,1-3.07-1c-.74-.69-1.1-1.92-1.1-3.72,0-3.82,1.48-5.72,4.45-5.72a5.09,5.09,0,0,1,3.47,1.3Z"/><path class="cls-1" d="M148.16,19.84c-2.83,0-4.95.78-6.38,2.35a9.08,9.08,0,0,0-2.14,6.34q0,4.42,2.55,6.6a10.25,10.25,0,0,0,6.89,2.17,21.07,21.07,0,0,0,3.4-.26,11.48,11.48,0,0,0,2.72-.8V32.85a12.27,12.27,0,0,1-2.39.63,15.18,15.18,0,0,1-2.74.25,9.45,9.45,0,0,1-4.15-.74,3.65,3.65,0,0,1-1.86-2.76h12.13v-3a7.12,7.12,0,0,0-2.07-5.32A8.12,8.12,0,0,0,148.16,19.84ZM152,27.3h-8a4.25,4.25,0,0,1,.94-3.08,4.53,4.53,0,0,1,3.3-1,4,4,0,0,1,2.87.84,3.06,3.06,0,0,1,.85,2.28Z"/><path class="cls-1" d="M164.14,21.92l-.21-1.73h-4.42V37h4.78V25.24A12.27,12.27,0,0,1,166,24.5c.68-.23,1.4-.45,2.15-.63s1.45-.33,2.09-.43v-3.6a16.29,16.29,0,0,0-3.3.79A14.38,14.38,0,0,0,164.14,21.92Z"/><path class="cls-1" d="M183.2,19.84a9.45,9.45,0,0,0-3.31.58,10.11,10.11,0,0,0-2.59,1.36l-.18-1.59H172.7V37h4.77V25.07a6.11,6.11,0,0,1,1.86-1.24,5.39,5.39,0,0,1,2.21-.49,3.56,3.56,0,0,1,2.56.7,3.4,3.4,0,0,1,.69,2.41V37h4.77V26.2A6.63,6.63,0,0,0,188,21.39C187,20.35,185.42,19.84,183.2,19.84Z"/><path class="cls-1" d="M214.46,14.18h-5.24L200.52,37h5l2.12-5.48H216L218.17,37h5Zm-6.12,13.61,3.46-9.16,3.5,9.16Z"/><path class="cls-1" d="M237.19,19.84a16.38,16.38,0,0,0-3.31.79,14.27,14.27,0,0,0-2.81,1.29l-.21-1.73h-4.42V37h4.77V25.24A13,13,0,0,1,233,24.5c.68-.23,1.4-.45,2.15-.63s1.45-.33,2.09-.43Z"/><path class="cls-1" d="M253.17,32.74a9.27,9.27,0,0,1-2.21.74,11.49,11.49,0,0,1-2.42.25,5.9,5.9,0,0,1-4.19-1.24,5.21,5.21,0,0,1-1.29-3.92q0-2.94,1.41-4.05a6.54,6.54,0,0,1,4.1-1.11,12.36,12.36,0,0,1,2.51.24,8.8,8.8,0,0,1,2,.68V20.9a10.54,10.54,0,0,0-2.47-.82,16.65,16.65,0,0,0-3-.24A10.27,10.27,0,0,0,240.78,22q-2.57,2.16-2.57,6.58t2.39,6.5q2.39,2.24,6.88,2.23a14.36,14.36,0,0,0,5.69-1Z"/><path class="cls-1" d="M268.27,37H273V26.2a6.67,6.67,0,0,0-1.52-4.81c-1-1-2.63-1.55-4.84-1.55a10.11,10.11,0,0,0-3.22.49A8.56,8.56,0,0,0,261,21.6V13.12h-4.77V37H261V25.07a5.94,5.94,0,0,1,1.85-1.24,5.43,5.43,0,0,1,2.21-.49,3.59,3.59,0,0,1,2.57.7,3.4,3.4,0,0,1,.69,2.41Z"/><polygon class="cls-1" points="283.26 36.95 283.26 20.19 276.4 20.19 275.98 23.72 278.49 23.72 278.49 36.95 283.26 36.95"/><path class="cls-1" d="M297.72,36.66V33.38a6.64,6.64,0,0,1-2.05.35,3.13,3.13,0,0,1-2-.51,2.3,2.3,0,0,1-.64-1.89V23.87h4l.28-3.68h-4.24v-5l-4.77,1.41v3.61h-2.37v3.68h2.37v7.77a5.87,5.87,0,0,0,1.39,4.14A5.6,5.6,0,0,0,294,37.3a11.69,11.69,0,0,0,2-.16A7.46,7.46,0,0,0,297.72,36.66Z"/><path class="cls-1" d="M315,32.85a12.27,12.27,0,0,1-2.39.63,15.18,15.18,0,0,1-2.74.25,9.42,9.42,0,0,1-4.15-.74,3.65,3.65,0,0,1-1.86-2.76H316v-3a7.12,7.12,0,0,0-2.07-5.32,8.14,8.14,0,0,0-6-2c-2.83,0-5,.78-6.38,2.35a9,9,0,0,0-2.14,6.34q0,4.42,2.55,6.6a10.23,10.23,0,0,0,6.89,2.17,20.85,20.85,0,0,0,3.39-.26,11.43,11.43,0,0,0,2.73-.8Zm-10.2-8.63a4.52,4.52,0,0,1,3.3-1,4,4,0,0,1,2.87.84,3.06,3.06,0,0,1,.85,2.28v.92h-8A4.25,4.25,0,0,1,304.81,24.22Z"/><path class="cls-1" d="M328.94,33.73a5.88,5.88,0,0,1-4.19-1.24,5.21,5.21,0,0,1-1.29-3.92q0-2.94,1.41-4.05a6.52,6.52,0,0,1,4.1-1.11,12.36,12.36,0,0,1,2.51.24,9,9,0,0,1,2,.68V20.9a10.54,10.54,0,0,0-2.47-.82,16.65,16.65,0,0,0-3-.24A10.27,10.27,0,0,0,321.18,22q-2.56,2.16-2.57,6.58t2.39,6.5q2.38,2.24,6.88,2.23a14.36,14.36,0,0,0,5.69-1V32.74a9.27,9.27,0,0,1-2.21.74A11.49,11.49,0,0,1,328.94,33.73Z"/><path class="cls-1" d="M347,33.38a6.64,6.64,0,0,1-2.05.35,3.13,3.13,0,0,1-2-.51,2.3,2.3,0,0,1-.64-1.89V23.87h4l.28-3.68H342.3v-5l-4.77,1.41v3.61h-2.37v3.68h2.37v7.77a5.83,5.83,0,0,0,1.4,4.14,5.56,5.56,0,0,0,4.29,1.52,11.61,11.61,0,0,0,2-.16,7.46,7.46,0,0,0,1.7-.48Z"/><path class="cls-1" d="M361.5,35.36l.18,1.59h4.42V20.19h-4.78V32.07a6.43,6.43,0,0,1-1.78,1.24,5.28,5.28,0,0,1-2.28.49,3.43,3.43,0,0,1-2.44-.76,3.25,3.25,0,0,1-.81-2.46V20.19h-4.78v10.5a6.68,6.68,0,0,0,1.68,4.93,6.33,6.33,0,0,0,4.69,1.68,9.45,9.45,0,0,0,3.41-.55A9.34,9.34,0,0,0,361.5,35.36Z"/><path class="cls-1" d="M380.91,19.84a16.29,16.29,0,0,0-3.3.79,14.38,14.38,0,0,0-2.82,1.29l-.21-1.73h-4.42V37h4.78V25.24a12.27,12.27,0,0,1,1.73-.74c.68-.23,1.4-.45,2.15-.63s1.45-.33,2.09-.43Z"/><path class="cls-1" d="M397.49,36.24V32.85a12.16,12.16,0,0,1-2.38.63,15.26,15.26,0,0,1-2.74.25,9.47,9.47,0,0,1-4.16-.74,3.61,3.61,0,0,1-1.85-2.76h12.12v-3a7.12,7.12,0,0,0-2.07-5.32,8.1,8.1,0,0,0-6-2q-4.24,0-6.38,2.35a9,9,0,0,0-2.14,6.34c0,2.95.84,5.15,2.54,6.6a10.28,10.28,0,0,0,6.9,2.17,21,21,0,0,0,3.39-.26A11.21,11.21,0,0,0,397.49,36.24Zm-10.2-12a4.56,4.56,0,0,1,3.31-1,4,4,0,0,1,2.86.84,3,3,0,0,1,.85,2.28v.92h-7.95A4.3,4.3,0,0,1,387.29,24.22Z"/><polygon class="cls-1" points="283.26 17.98 279.64 14.36 276.42 17.98 283.26 17.98"/><polygon class="cls-1" points="82.94 52.47 79.5 43.73 79.25 43.73 75.77 52.47 73.29 43.73 72.04 43.73 75.48 55.86 75.71 55.86 79.38 46.68 82.98 55.86 83.21 55.86 86.69 43.73 85.46 43.73 82.94 52.47"/><path class="cls-1" d="M98.45,47.17a3.13,3.13,0,0,0-1.79-.51,3.78,3.78,0,0,0-1.82.45,5.1,5.1,0,0,0-1.55,1.38V43.42H92.14V55.86h1.15V52.57a11.72,11.72,0,0,1,.17-2.44,3.23,3.23,0,0,1,1.09-1.72,2.86,2.86,0,0,1,1.88-.69,2.12,2.12,0,0,1,2.26,1.79,11.33,11.33,0,0,1,.12,2.07v4.28H100V51.24a7.23,7.23,0,0,0-.37-2.7A3.07,3.07,0,0,0,98.45,47.17Z"/><path class="cls-1" d="M113.66,48.4A4.39,4.39,0,0,0,110,46.66a4.25,4.25,0,0,0-3.55,1.7,4.9,4.9,0,0,0,.19,6.29,4.28,4.28,0,0,0,3.43,1.44,5,5,0,0,0,1.78-.3,4.34,4.34,0,0,0,1.41-.88,5.28,5.28,0,0,0,1.11-1.51l-1-.51a5.44,5.44,0,0,1-1,1.27,3.56,3.56,0,0,1-1.1.63A3.87,3.87,0,0,1,110,55a3.2,3.2,0,0,1-2.39-1,3.72,3.72,0,0,1-1-2.57h8.08A4.84,4.84,0,0,0,113.66,48.4Zm-7,2.07a3.86,3.86,0,0,1,1-1.86,3.27,3.27,0,0,1,2.27-.85,3.49,3.49,0,0,1,1.53.34,3.19,3.19,0,0,1,1.17.89,3.83,3.83,0,0,1,.67,1.48Z"/><path class="cls-1" d="M122,47a4,4,0,0,0-1.11,1.16V46.89h-1.18v9h1.18v-3a14.54,14.54,0,0,1,.21-3.11,3,3,0,0,1,.82-1.47,1.66,1.66,0,0,1,1.12-.47,1.72,1.72,0,0,1,.61.15l.6-1A2,2,0,0,0,122,47Z"/><path class="cls-1" d="M136.49,48.4a4.42,4.42,0,0,0-3.67-1.74,4.27,4.27,0,0,0-3.56,1.7,4.78,4.78,0,0,0-1,3,4.86,4.86,0,0,0,1.24,3.25,4.3,4.3,0,0,0,3.44,1.44,4.9,4.9,0,0,0,1.77-.3,4.24,4.24,0,0,0,1.41-.88,5.28,5.28,0,0,0,1.11-1.51l-1-.51a5.43,5.43,0,0,1-1,1.27,3.56,3.56,0,0,1-1.1.63,3.81,3.81,0,0,1-1.33.24,3.17,3.17,0,0,1-2.39-1,3.67,3.67,0,0,1-1-2.57h8.08A4.84,4.84,0,0,0,136.49,48.4Zm-7,2.07a3.78,3.78,0,0,1,1-1.86,3.31,3.31,0,0,1,2.28-.85,3.48,3.48,0,0,1,1.52.34,3,3,0,0,1,1.17.89,3.84,3.84,0,0,1,.68,1.48Z"/><polygon class="cls-1" points="155.68 53.1 151.66 43.73 150.33 43.73 155.54 55.86 155.81 55.86 161.09 43.73 159.76 43.73 155.68 53.1"/><rect class="cls-1" x="166.14" y="46.89" width="1.15" height="8.98"/><path class="cls-1" d="M166.71,43.19a.88.88,0,0,0-.66.28.91.91,0,0,0-.28.68.88.88,0,0,0,.28.66.89.89,0,0,0,.66.29,1,1,0,0,0,1-1,1,1,0,0,0-.28-.68A.91.91,0,0,0,166.71,43.19Z"/><path class="cls-1" d="M175.39,50.76a4.71,4.71,0,0,1-1.39-.95,1.3,1.3,0,0,1-.33-.84,1.13,1.13,0,0,1,.4-.86,1.36,1.36,0,0,1,1-.37,2.72,2.72,0,0,1,1.82.89l.74-.76a3.65,3.65,0,0,0-2.5-1.21,2.41,2.41,0,0,0-1.76.67,2.26,2.26,0,0,0-.7,1.7,2.38,2.38,0,0,0,.44,1.4,4.73,4.73,0,0,0,1.65,1.23,5.41,5.41,0,0,1,1.46,1,1.37,1.37,0,0,1-.17,1.93,1.67,1.67,0,0,1-1.18.45A2.55,2.55,0,0,1,173,54l-.72.82a3.19,3.19,0,0,0,1.17.94,3.44,3.44,0,0,0,1.48.33,2.65,2.65,0,0,0,1.94-.76,2.54,2.54,0,0,0,.78-1.88,2.31,2.31,0,0,0-.46-1.41A5.14,5.14,0,0,0,175.39,50.76Z"/><path class="cls-1" d="M183.42,43.19a1,1,0,0,0-.95,1,.88.88,0,0,0,.28.66.92.92,0,0,0,1.34,0,.88.88,0,0,0,.28-.66,1,1,0,0,0-1-1Z"/><rect class="cls-1" x="182.84" y="46.89" width="1.16" height="8.98"/><path class="cls-1" d="M194,46.66a4.44,4.44,0,0,0-3.45,1.51,4.64,4.64,0,0,0-1.24,3.23,4.7,4.7,0,0,0,1.31,3.29,4.77,4.77,0,0,0,6.75,0,4.82,4.82,0,0,0,.07-6.53A4.46,4.46,0,0,0,194,46.66Zm3,6.58a3.38,3.38,0,0,1-1.27,1.3A3.59,3.59,0,0,1,194,55a3.53,3.53,0,0,1-1.76-.46,3.4,3.4,0,0,1-1.28-1.3,3.71,3.71,0,0,1-.47-1.82,3.56,3.56,0,0,1,1-2.57A3.32,3.32,0,0,1,194,47.79a3.35,3.35,0,0,1,2.48,1.06,3.55,3.55,0,0,1,1,2.57A3.61,3.61,0,0,1,197.06,53.24Z"/><path class="cls-1" d="M210.53,47.17a3.1,3.1,0,0,0-1.79-.51,3.81,3.81,0,0,0-1.83.45,4.93,4.93,0,0,0-1.53,1.38v-1.6h-1.16v9h1.16V52.57a12,12,0,0,1,.16-2.44,3.25,3.25,0,0,1,1.1-1.72,2.83,2.83,0,0,1,1.87-.69,2.34,2.34,0,0,1,1.49.45,2.26,2.26,0,0,1,.77,1.34,10.21,10.21,0,0,1,.13,2.07v4.28h1.15V51.24a7.26,7.26,0,0,0-.37-2.7A3.07,3.07,0,0,0,210.53,47.17Z"/><polygon class="cls-1" points="237.36 43.73 232.47 53.69 227.54 43.73 227.34 43.73 225.6 55.86 226.77 55.86 227.97 47.12 232.31 55.86 232.62 55.86 236.91 47.18 238.11 55.86 239.3 55.86 237.55 43.73 237.36 43.73"/><path class="cls-1" d="M252.71,48.4a4.39,4.39,0,0,0-3.66-1.74,4.26,4.26,0,0,0-3.56,1.7,4.9,4.9,0,0,0,.19,6.29,4.28,4.28,0,0,0,3.43,1.44,5,5,0,0,0,1.78-.3,4.34,4.34,0,0,0,1.41-.88,5.28,5.28,0,0,0,1.11-1.51l-1-.51a5.44,5.44,0,0,1-1,1.27,3.56,3.56,0,0,1-1.1.63A3.87,3.87,0,0,1,249,55a3.2,3.2,0,0,1-2.39-1,3.72,3.72,0,0,1-1-2.57h8.08A4.84,4.84,0,0,0,252.71,48.4Zm-7,2.07a3.86,3.86,0,0,1,1-1.86,3.27,3.27,0,0,1,2.27-.85,3.49,3.49,0,0,1,1.53.34,3,3,0,0,1,1.17.89,3.83,3.83,0,0,1,.67,1.48Z"/><path class="cls-1" d="M267.07,48.4a4.39,4.39,0,0,0-3.66-1.74,4.26,4.26,0,0,0-3.56,1.7,4.9,4.9,0,0,0,.19,6.29,4.28,4.28,0,0,0,3.43,1.44,5,5,0,0,0,1.78-.3,4.34,4.34,0,0,0,1.41-.88,5.28,5.28,0,0,0,1.11-1.51l-1-.51a5.44,5.44,0,0,1-1,1.27,3.56,3.56,0,0,1-1.1.63,3.83,3.83,0,0,1-1.34.24A3.16,3.16,0,0,1,261,54a3.63,3.63,0,0,1-1-2.57h8.08A4.84,4.84,0,0,0,267.07,48.4Zm-7,2.07a3.86,3.86,0,0,1,1-1.86,3.28,3.28,0,0,1,2.27-.85,3.49,3.49,0,0,1,1.53.34,3,3,0,0,1,1.17.89,3.69,3.69,0,0,1,.67,1.48Z"/><polygon class="cls-1" points="275.76 43.55 274.61 43.55 274.61 46.89 273.03 46.89 273.03 47.88 274.61 47.88 274.61 55.86 275.76 55.86 275.76 47.88 277.59 47.88 277.59 46.89 275.76 46.89 275.76 43.55"/><path class="cls-1" d="M285,50.76a4.71,4.71,0,0,1-1.39-.95,1.3,1.3,0,0,1-.33-.84,1.13,1.13,0,0,1,.4-.86,1.36,1.36,0,0,1,1-.37,2.72,2.72,0,0,1,1.82.89l.74-.76a3.65,3.65,0,0,0-2.5-1.21,2.41,2.41,0,0,0-1.76.67,2.26,2.26,0,0,0-.7,1.7,2.31,2.31,0,0,0,.44,1.4,4.73,4.73,0,0,0,1.65,1.23,5.41,5.41,0,0,1,1.46,1,1.37,1.37,0,0,1-.17,1.93,1.69,1.69,0,0,1-1.18.45,2.55,2.55,0,0,1-1.88-1l-.73.82a3.27,3.27,0,0,0,1.17.94,3.48,3.48,0,0,0,1.49.33,2.66,2.66,0,0,0,1.94-.76,2.54,2.54,0,0,0,.78-1.88,2.38,2.38,0,0,0-.46-1.41A5.14,5.14,0,0,0,285,50.76Z"/><path class="cls-1" d="M304,49c-.88-.66-1.4-1.06-1.56-1.22a3,3,0,0,1-.61-.8,1.9,1.9,0,0,1-.16-.77,1.46,1.46,0,0,1,.46-1.1,1.69,1.69,0,0,1,1.21-.45,2,2,0,0,1,1.05.29,4.92,4.92,0,0,1,1.16,1.2l1-.75A5.58,5.58,0,0,0,305,43.85a3.16,3.16,0,0,0-1.61-.43,3.1,3.1,0,0,0-1.5.38,2.77,2.77,0,0,0-1.07,1,2.87,2.87,0,0,0-.37,1.45,3,3,0,0,0,.64,1.85,10.26,10.26,0,0,0,1.89,1.66A9.82,9.82,0,0,1,305,51.73a2.09,2.09,0,0,1,.41,1.2,2,2,0,0,1-.28,1,2,2,0,0,1-.82.76,2.41,2.41,0,0,1-1.14.29c-.95,0-1.8-.67-2.52-2l-1,.62a5.36,5.36,0,0,0,1.66,2,3.58,3.58,0,0,0,2,.59,3.41,3.41,0,0,0,2.44-1,3.1,3.1,0,0,0,1-2.3,3.31,3.31,0,0,0-.58-1.82A8.52,8.52,0,0,0,304,49Z"/><polygon class="cls-1" points="314.66 43.55 313.5 43.55 313.5 46.89 311.93 46.89 311.93 47.88 313.5 47.88 313.5 55.86 314.66 55.86 314.66 47.88 316.49 47.88 316.49 46.89 314.66 46.89 314.66 43.55"/><path class="cls-1" d="M323.46,47a4,4,0,0,0-1.11,1.16V46.89h-1.18v9h1.18v-3a14.54,14.54,0,0,1,.21-3.11,3,3,0,0,1,.82-1.47,1.46,1.46,0,0,1,1.72-.32l.61-1a2,2,0,0,0-2.25.08Z"/><path class="cls-1" d="M336.59,51.08a8.5,8.5,0,0,1-.17,2.2,2.37,2.37,0,0,1-.93,1.23,2.83,2.83,0,0,1-1.64.46,2.9,2.9,0,0,1-1.67-.48,2.34,2.34,0,0,1-.94-1.3,8.85,8.85,0,0,1-.17-2.11V46.89h-1.15v4.32a7.26,7.26,0,0,0,.43,2.87,3.31,3.31,0,0,0,1.31,1.48,4.13,4.13,0,0,0,2.19.53,4.09,4.09,0,0,0,2.19-.53,3.26,3.26,0,0,0,1.3-1.47,7,7,0,0,0,.43-2.8v-4.4h-1.18Z"/><path class="cls-1" d="M348.28,47.74a3.85,3.85,0,0,1,3.24,1.58l.91-.57a3.91,3.91,0,0,0-1-1.11,4.78,4.78,0,0,0-1.41-.71,5.48,5.48,0,0,0-1.72-.27,5.21,5.21,0,0,0-2.56.62A4.62,4.62,0,0,0,344,49a4.75,4.75,0,0,0-.65,2.42,4.41,4.41,0,0,0,1.4,3.29,4.88,4.88,0,0,0,3.53,1.35,5.44,5.44,0,0,0,2.47-.53,4.36,4.36,0,0,0,1.73-1.5l-.91-.61a4.13,4.13,0,0,1-5.18,1.1A3.46,3.46,0,0,1,345,53.21a3.57,3.57,0,0,1-.5-1.85,3.45,3.45,0,0,1,1.08-2.56A3.78,3.78,0,0,1,348.28,47.74Z"/><polygon class="cls-1" points="360.19 43.55 359.04 43.55 359.04 46.89 357.46 46.89 357.46 47.88 359.04 47.88 359.04 55.86 360.19 55.86 360.19 47.88 362.02 47.88 362.02 46.89 360.19 46.89 360.19 43.55"/><path class="cls-1" d="M373.66,51.08a8.5,8.5,0,0,1-.17,2.2,2.37,2.37,0,0,1-.93,1.23,3.13,3.13,0,0,1-3.3,0,2.31,2.31,0,0,1-.95-1.3,8.85,8.85,0,0,1-.17-2.11V46.89H367v4.32a7.26,7.26,0,0,0,.43,2.87,3.31,3.31,0,0,0,1.31,1.48,4.13,4.13,0,0,0,2.19.53,4.09,4.09,0,0,0,2.19-.53,3.26,3.26,0,0,0,1.3-1.47,7,7,0,0,0,.43-2.8v-4.4h-1.18Z"/><path class="cls-1" d="M382.65,47a3.9,3.9,0,0,0-1.12,1.16V46.89h-1.18v9h1.18v-3a13.69,13.69,0,0,1,.22-3.11,3,3,0,0,1,.81-1.47,1.66,1.66,0,0,1,1.12-.47,1.68,1.68,0,0,1,.61.15l.6-1a2.11,2.11,0,0,0-1-.3A2.14,2.14,0,0,0,382.65,47Z"/><path class="cls-1" d="M395.83,54.16a3.62,3.62,0,0,1-1.11.63,3.77,3.77,0,0,1-1.33.24A3.19,3.19,0,0,1,391,54a3.72,3.72,0,0,1-1-2.57h8.08a4.84,4.84,0,0,0-1-3.06,4.4,4.4,0,0,0-3.67-1.74,4.28,4.28,0,0,0-3.56,1.7,4.78,4.78,0,0,0-1.05,3,4.86,4.86,0,0,0,1.24,3.25,4.31,4.31,0,0,0,3.44,1.44,5,5,0,0,0,1.78-.3,4.34,4.34,0,0,0,1.41-.88,5.46,5.46,0,0,0,1.1-1.51l-1-.51A5.44,5.44,0,0,1,395.83,54.16Zm-4.66-5.55a3.27,3.27,0,0,1,2.27-.85,3.55,3.55,0,0,1,1.53.34,3.19,3.19,0,0,1,1.17.89,3.83,3.83,0,0,1,.67,1.48h-6.69A3.79,3.79,0,0,1,391.17,48.61Z"/></g></g></svg>