<?xml version="1.0" encoding="utf-8"?>
<!-- Generator: Adobe Illustrator 26.0.0, SVG Export Plug-In . SVG Version: 6.00 Build 0)  -->
<svg version="1.1" id="Layer_1" xmlns="http://www.w3.org/2000/svg" xmlns:xlink="http://www.w3.org/1999/xlink" x="0px" y="0px"
	 viewBox="0 0 398.5 56.2" style="enable-background:new 0 0 398.5 56.2;" xml:space="preserve">
<style type="text/css">
	.st0{fill:#FFFFFF;}
</style>
<g id="Layer_2_00000114060436409897054810000015859333086797504898_">
	<g id="Layer_1-2">
		<polygon class="st0" points="60.2,0 30.5,29.7 30.5,53.9 60.2,24.2 		"/>
		<polygon class="st0" points="60.2,34.6 49.4,45.5 60.2,55.1 		"/>
		<path class="st0" d="M25.6,25.6L1.5,1.5L0,0v54.5l27.2-27.2L25.6,25.6z M9.5,42.9l-8,8v-9.7h3.6v-1.1H1.5v-3.3h1.9v-1.1H1.5v-3.3
			h3.6v-1.1H1.5v-3.3h1.9V27H1.5v-3.3h3.6v-1.1H1.5v-3.3h1.9v-1.1H1.5V15h3.6v-1.1H1.5V3.6l23.1,23.1l0.6,0.6L9.5,42.9z"/>
		<path class="st0" d="M8.1,38.7l11.5-11.5L8.1,15.8V38.7z M9.6,19.3l7.9,7.9l-7.9,7.9V19.3z"/>
		<polygon class="st0" points="83.5,27.9 76.8,14.2 72,14.2 72,37 76.8,37 76.8,22.1 82.2,33 84.9,33 90.2,22.1 90.2,37 95,37 
			95,14.2 90.2,14.2 		"/>
		<path class="st0" d="M107.4,19.8c-3.1,0-5.4,0.8-6.9,2.3c-1.6,1.8-2.4,4.1-2.2,6.4c-0.1,2.3,0.6,4.7,2.2,6.4
			c1.5,1.5,3.8,2.3,6.9,2.3s5.4-0.8,6.9-2.3c1.6-1.8,2.3-4.1,2.2-6.5c0.1-2.4-0.6-4.7-2.2-6.5C112.8,20.6,110.5,19.8,107.4,19.8z
			 M110.7,32.2c-0.9,0.8-2.1,1.2-3.3,1c-1.2,0.1-2.4-0.3-3.3-1c-0.8-1-1.1-2.3-1-3.6c-0.1-1.3,0.2-2.6,1-3.6c0.9-0.8,2.1-1.1,3.3-1
			c1.2-0.1,2.4,0.2,3.3,1c0.8,1,1.1,2.3,1,3.6C111.8,29.9,111.5,31.1,110.7,32.2z"/>
		<path class="st0" d="M131.9,21.1c-1.4-0.9-3-1.3-4.7-1.3c-1.4,0-2.8,0.4-4,1.1c-1.3,0.7-2.3,1.8-3,3.1c-0.8,1.6-1.1,3.3-1.1,5
			c-0.1,1.7,0.3,3.3,1,4.8c0.6,1.2,1.6,2.1,2.7,2.6c1.3,0.6,2.6,0.8,4,0.8c1,0,2.1-0.1,3.1-0.5c0.9-0.3,1.7-0.8,2.4-1.4l0.3,1.6h4.1
			V13.1h-4.8V21.1z M131.9,32.3c-1,1-2.3,1.6-3.8,1.5c-1.1,0.1-2.2-0.3-3.1-1c-0.7-0.7-1.1-1.9-1.1-3.7c0-3.8,1.5-5.7,4.4-5.7
			c1.3,0,2.5,0.4,3.5,1.3V32.3z"/>
		<path class="st0" d="M148.2,19.8c-2.8,0-4.9,0.8-6.4,2.4c-1.5,1.8-2.3,4-2.1,6.3c0,2.9,0.9,5.1,2.6,6.6c2,1.5,4.4,2.3,6.9,2.2
			c1.1,0,2.3-0.1,3.4-0.3c0.9-0.2,1.8-0.4,2.7-0.8v-3.4c-0.8,0.3-1.6,0.5-2.4,0.6c-0.9,0.2-1.8,0.2-2.7,0.2
			c-1.4,0.1-2.8-0.2-4.1-0.7c-1-0.6-1.7-1.6-1.9-2.8h12.1v-3c0.1-2-0.7-3.9-2.1-5.3C152.5,20.4,150.3,19.7,148.2,19.8z M152,27.3h-8
			c-0.1-1.1,0.2-2.2,0.9-3.1c0.9-0.8,2.1-1.1,3.3-1c1-0.1,2.1,0.2,2.9,0.8c0.6,0.6,0.9,1.4,0.9,2.3L152,27.3z"/>
		<path class="st0" d="M164.1,21.9l-0.2-1.7h-4.4V37h4.8V25.2c0.6-0.3,1.1-0.5,1.7-0.7c0.7-0.2,1.4-0.5,2.1-0.6s1.4-0.3,2.1-0.4
			v-3.6c-1.1,0.1-2.2,0.4-3.3,0.8C166,21,165,21.4,164.1,21.9z"/>
		<path class="st0" d="M183.2,19.8c-1.1,0-2.3,0.2-3.3,0.6c-0.9,0.3-1.8,0.8-2.6,1.4l-0.2-1.6h-4.4V37h4.8V25.1
			c0.5-0.5,1.2-0.9,1.9-1.2c0.7-0.3,1.4-0.5,2.2-0.5c0.9-0.1,1.8,0.1,2.6,0.7c0.5,0.7,0.8,1.5,0.7,2.4V37h4.8V26.2
			c0.1-1.7-0.4-3.5-1.6-4.8C187,20.4,185.4,19.8,183.2,19.8z"/>
		<path class="st0" d="M214.5,14.2h-5.2L200.5,37h5l2.1-5.5h8.4l2.2,5.5h5L214.5,14.2z M208.3,27.8l3.5-9.2l3.5,9.2H208.3z"/>
		<path class="st0" d="M237.2,19.8c-1.1,0.1-2.2,0.4-3.3,0.8c-1,0.3-1.9,0.8-2.8,1.3l-0.2-1.7h-4.4V37h4.8V25.2
			c0.6-0.3,1.2-0.5,1.8-0.7c0.7-0.2,1.4-0.5,2.1-0.6s1.4-0.3,2.1-0.4L237.2,19.8z"/>
		<path class="st0" d="M253.2,32.7c-0.7,0.3-1.4,0.6-2.2,0.7c-0.8,0.2-1.6,0.3-2.4,0.2c-1.5,0.1-3-0.3-4.2-1.2
			c-1-1.1-1.4-2.5-1.3-3.9c0-2,0.5-3.3,1.4-4.1c1.2-0.8,2.6-1.2,4.1-1.1c0.8,0,1.7,0.1,2.5,0.2c0.7,0.1,1.4,0.4,2,0.7v-3.4
			c-0.8-0.4-1.6-0.6-2.5-0.8c-1-0.2-2-0.3-3-0.2c-2.5-0.1-4.9,0.6-6.8,2.2c-1.7,1.4-2.6,3.6-2.6,6.6c0,2.9,0.8,5.1,2.4,6.5
			c1.6,1.5,3.9,2.2,6.9,2.2c1.9,0.1,3.9-0.3,5.7-1V32.7z"/>
		<path class="st0" d="M268.3,37h4.7V26.2c0.1-1.7-0.4-3.5-1.5-4.8c-1-1-2.6-1.5-4.8-1.5c-1.1,0-2.2,0.2-3.2,0.5
			c-0.9,0.3-1.7,0.7-2.4,1.3v-8.5h-4.8V37h4.8V25.1c0.5-0.5,1.2-0.9,1.9-1.2c0.7-0.3,1.4-0.5,2.2-0.5c0.9-0.1,1.8,0.1,2.6,0.7
			c0.5,0.7,0.8,1.5,0.7,2.4L268.3,37z"/>
		<polygon class="st0" points="283.3,37 283.3,20.2 276.4,20.2 276,23.7 278.5,23.7 278.5,37 		"/>
		<path class="st0" d="M297.7,36.7v-3.3c-0.7,0.2-1.4,0.3-2,0.3c-0.7,0.1-1.4-0.1-2-0.5c-0.5-0.5-0.7-1.2-0.6-1.9v-7.5h4l0.3-3.7
			h-4.2v-5l-4.8,1.4v3.6h-2.4v3.7h2.4v7.8c-0.1,1.5,0.4,3,1.4,4.1c1.2,1.1,2.7,1.6,4.3,1.5c0.7,0,1.3,0,2-0.2
			C296.6,37,297.2,36.9,297.7,36.7z"/>
		<path class="st0" d="M315,32.8c-0.8,0.3-1.6,0.5-2.4,0.6c-0.9,0.2-1.8,0.2-2.7,0.2c-1.4,0.1-2.8-0.2-4.1-0.7
			c-1-0.6-1.7-1.6-1.9-2.8H316v-3c0.1-2-0.7-3.9-2.1-5.3c-1.6-1.4-3.8-2.2-6-2c-2.8,0-5,0.8-6.4,2.4c-1.5,1.8-2.3,4-2.1,6.3
			c0,2.9,0.9,5.1,2.5,6.6c2,1.5,4.4,2.3,6.9,2.2c1.1,0,2.3-0.1,3.4-0.3c0.9-0.2,1.9-0.4,2.7-0.8L315,32.8z M304.8,24.2
			c0.9-0.8,2.1-1.1,3.3-1c1-0.1,2.1,0.2,2.9,0.8c0.6,0.6,0.9,1.4,0.9,2.3v0.9h-8C303.7,26.2,304.1,25.1,304.8,24.2L304.8,24.2z"/>
		<path class="st0" d="M328.9,33.7c-1.5,0.1-3-0.3-4.2-1.2c-1-1.1-1.4-2.5-1.3-3.9c0-2,0.5-3.3,1.4-4.1c1.2-0.8,2.6-1.2,4.1-1.1
			c0.8,0,1.7,0.1,2.5,0.2c0.7,0.1,1.4,0.4,2,0.7v-3.4c-0.8-0.4-1.6-0.6-2.5-0.8c-1-0.2-2-0.3-3-0.2c-2.5-0.1-4.9,0.6-6.8,2.2
			c-1.7,1.4-2.6,3.6-2.6,6.6s0.8,5.1,2.4,6.5c1.6,1.5,3.9,2.2,6.9,2.2c1.9,0.1,3.9-0.3,5.7-1v-3.6c-0.7,0.3-1.4,0.6-2.2,0.7
			C330.6,33.6,329.8,33.7,328.9,33.7z"/>
		<path class="st0" d="M347,33.4c-0.7,0.2-1.4,0.3-2,0.3c-0.7,0.1-1.4-0.1-2-0.5c-0.5-0.5-0.7-1.2-0.6-1.9v-7.5h4l0.3-3.7h-4.3v-5
			l-4.8,1.4v3.6h-2.4v3.7h2.4v7.8c-0.1,1.5,0.4,3,1.4,4.1c1.1,1.1,2.7,1.6,4.3,1.5c0.7,0,1.3,0,2-0.2c0.6-0.1,1.2-0.3,1.7-0.5
			L347,33.4z"/>
		<path class="st0" d="M361.5,35.4l0.2,1.6h4.4V20.2h-4.8v11.9c-0.5,0.5-1.1,0.9-1.8,1.2c-0.7,0.3-1.5,0.5-2.3,0.5
			c-0.9,0.1-1.8-0.2-2.4-0.8c-0.6-0.7-0.9-1.6-0.8-2.5V20.2h-4.8v10.5c-0.1,1.8,0.5,3.6,1.7,4.9c1.3,1.2,3,1.8,4.7,1.7
			c1.2,0,2.3-0.2,3.4-0.5C359.9,36.4,360.7,35.9,361.5,35.4z"/>
		<path class="st0" d="M380.9,19.8c-1.1,0.1-2.2,0.4-3.3,0.8c-1,0.3-1.9,0.8-2.8,1.3l-0.2-1.7h-4.4V37h4.8V25.2
			c0.6-0.3,1.1-0.5,1.7-0.7c0.7-0.2,1.4-0.5,2.1-0.6s1.5-0.3,2.1-0.4V19.8z"/>
		<path class="st0" d="M397.5,36.2v-3.4c-0.8,0.3-1.6,0.5-2.4,0.6c-0.9,0.2-1.8,0.2-2.7,0.2c-1.4,0.1-2.8-0.2-4.2-0.7
			c-1-0.6-1.7-1.6-1.9-2.8h12.1v-3c0.1-2-0.7-3.9-2.1-5.3c-1.6-1.5-3.8-2.2-6-2c-2.8,0-5,0.8-6.4,2.4c-1.5,1.8-2.3,4-2.1,6.3
			c0,3,0.8,5.2,2.5,6.6c2,1.5,4.4,2.3,6.9,2.2c1.1,0,2.3-0.1,3.4-0.3C395.7,36.9,396.6,36.6,397.5,36.2z M387.3,24.2
			c0.9-0.8,2.1-1.1,3.3-1c1-0.1,2.1,0.2,2.9,0.8c0.6,0.6,0.9,1.4,0.9,2.3v0.9h-8C386.3,26.2,386.6,25.1,387.3,24.2L387.3,24.2z"/>
		<polygon class="st0" points="283.3,18 279.6,14.4 276.4,18 		"/>
		<polygon class="st0" points="82.9,52.5 79.5,43.7 79.2,43.7 75.8,52.5 73.3,43.7 72,43.7 75.5,55.9 75.7,55.9 79.4,46.7 83,55.9 
			83.2,55.9 86.7,43.7 85.5,43.7 		"/>
		<path class="st0" d="M98.4,47.2c-0.5-0.3-1.2-0.5-1.8-0.5c-0.6,0-1.3,0.1-1.8,0.5c-0.6,0.3-1.1,0.8-1.6,1.4v-5.1h-1.1v12.4h1.2
			v-3.3c0-0.8,0-1.6,0.2-2.4c0.2-0.7,0.6-1.3,1.1-1.7c0.5-0.4,1.2-0.7,1.9-0.7c1.1-0.1,2.1,0.7,2.3,1.8c0.1,0.7,0.1,1.4,0.1,2.1v4.3
			h1.2v-4.6c0-0.9-0.1-1.8-0.4-2.7C99.4,48,99,47.5,98.4,47.2z"/>
		<path class="st0" d="M113.7,48.4c-0.9-1.1-2.2-1.8-3.7-1.7c-1.4,0-2.7,0.6-3.6,1.7c-1.5,1.9-1.4,4.5,0.2,6.3
			c0.9,1,2.1,1.5,3.4,1.4c0.6,0,1.2-0.1,1.8-0.3c0.5-0.2,1-0.5,1.4-0.9c0.5-0.4,0.8-0.9,1.1-1.5l-1-0.5c-0.3,0.5-0.6,0.9-1,1.3
			c-0.3,0.3-0.7,0.5-1.1,0.6c-0.4,0.1-0.8,0.2-1.3,0.2c-0.9,0-1.8-0.3-2.4-1c-0.7-0.7-1-1.6-1-2.6h8.1
			C114.7,50.3,114.3,49.3,113.7,48.4z M106.7,50.5c0.2-0.7,0.5-1.3,1-1.9c0.6-0.6,1.4-0.9,2.3-0.8c0.5,0,1.1,0.1,1.5,0.3
			c0.5,0.2,0.9,0.5,1.2,0.9c0.3,0.4,0.6,0.9,0.7,1.5H106.7z"/>
		<path class="st0" d="M122,47c-0.4,0.3-0.8,0.7-1.1,1.2v-1.3h-1.2v9h1.2v-3c0-1,0-2.1,0.2-3.1c0.1-0.6,0.4-1.1,0.8-1.5
			c0.3-0.3,0.7-0.5,1.1-0.5c0.2,0,0.4,0.1,0.6,0.2l0.6-1C123.6,46.5,122.7,46.5,122,47z"/>
		<path class="st0" d="M136.5,48.4c-0.9-1.1-2.2-1.8-3.7-1.7c-1.4,0-2.7,0.6-3.6,1.7c-0.7,0.9-1,1.9-1,3c0,1.2,0.4,2.4,1.2,3.2
			c0.9,1,2.1,1.5,3.4,1.4c0.6,0,1.2-0.1,1.8-0.3c0.5-0.2,1-0.5,1.4-0.9c0.5-0.4,0.8-0.9,1.1-1.5l-1-0.5c-0.3,0.5-0.6,0.9-1,1.3
			c-0.3,0.3-0.7,0.5-1.1,0.6c-0.4,0.2-0.9,0.2-1.3,0.2c-0.9,0-1.8-0.3-2.4-1c-0.7-0.7-1-1.6-1-2.6h8.1
			C137.5,50.3,137.2,49.3,136.5,48.4z M129.5,50.5c0.1-0.7,0.5-1.3,1-1.9c0.6-0.6,1.4-0.9,2.3-0.8c0.5,0,1,0.1,1.5,0.3
			c0.5,0.2,0.9,0.5,1.2,0.9c0.3,0.4,0.6,0.9,0.7,1.5H129.5z"/>
		<polygon class="st0" points="155.7,53.1 151.7,43.7 150.3,43.7 155.5,55.9 155.8,55.9 161.1,43.7 159.8,43.7 		"/>
		<rect x="166.1" y="46.9" class="st0" width="1.1" height="9"/>
		<path class="st0" d="M166.7,43.2c-0.2,0-0.5,0.1-0.7,0.3c-0.2,0.2-0.3,0.4-0.3,0.7c0,0.2,0.1,0.5,0.3,0.7c0.2,0.2,0.4,0.3,0.7,0.3
			c0.6,0,1-0.4,1-1c0-0.3-0.1-0.5-0.3-0.7C167.2,43.2,167,43.2,166.7,43.2z"/>
		<path class="st0" d="M175.4,50.8c-0.5-0.2-1-0.6-1.4-1c-0.2-0.2-0.3-0.5-0.3-0.8c0-0.3,0.1-0.6,0.4-0.9c0.3-0.3,0.6-0.4,1-0.4
			c0.7,0.1,1.4,0.4,1.8,0.9l0.7-0.8c-0.6-0.7-1.5-1.2-2.5-1.2c-0.7,0-1.3,0.2-1.8,0.7c-0.5,0.4-0.7,1.1-0.7,1.7c0,0.5,0.1,1,0.4,1.4
			c0.5,0.5,1,0.9,1.6,1.2c0.5,0.3,1,0.6,1.5,1c0.5,0.6,0.4,1.4-0.2,1.9l0,0c-0.3,0.3-0.7,0.5-1.2,0.5c-0.7-0.1-1.4-0.4-1.9-1
			l-0.7,0.8c0.3,0.4,0.7,0.7,1.2,0.9c0.5,0.2,1,0.3,1.5,0.3c0.7,0,1.4-0.3,1.9-0.8c0.5-0.5,0.8-1.2,0.8-1.9c0-0.5-0.2-1-0.5-1.4
			C176.7,51.5,176.1,51.1,175.4,50.8z"/>
		<path class="st0" d="M183.4,43.2c-0.5,0-1,0.5-0.9,1c0,0.2,0.1,0.5,0.3,0.7c0.3,0.4,0.9,0.4,1.3,0c0,0,0,0,0,0
			c0.2-0.2,0.3-0.4,0.3-0.7C184.4,43.6,183.9,43.2,183.4,43.2L183.4,43.2z"/>
		<rect x="182.8" y="46.9" class="st0" width="1.2" height="9"/>
		<path class="st0" d="M194,46.7c-1.3,0-2.6,0.5-3.4,1.5c-0.8,0.9-1.3,2-1.2,3.2c0,1.2,0.5,2.4,1.3,3.3c1.9,1.9,4.9,1.9,6.7,0
			c0,0,0,0,0,0c1.7-1.8,1.7-4.7,0.1-6.5C196.6,47.2,195.3,46.6,194,46.7z M197,53.2c-0.3,0.5-0.7,1-1.3,1.3
			c-0.5,0.3-1.1,0.5-1.7,0.5c-0.6,0-1.2-0.2-1.8-0.5c-0.5-0.3-1-0.8-1.3-1.3c-0.3-0.6-0.5-1.2-0.5-1.8c0-1,0.3-1.9,1-2.6
			c0.6-0.7,1.6-1.1,2.5-1.1c0.9,0,1.8,0.4,2.5,1.1c0.7,0.7,1,1.6,1,2.6C197.5,52.1,197.4,52.7,197,53.2L197,53.2z"/>
		<path class="st0" d="M210.5,47.2c-0.5-0.3-1.2-0.5-1.8-0.5c-0.6,0-1.3,0.1-1.8,0.5c-0.6,0.3-1.1,0.8-1.5,1.4v-1.6h-1.2v9h1.2v-3.3
			c0-0.8,0-1.6,0.2-2.4c0.2-0.7,0.6-1.3,1.1-1.7c0.5-0.4,1.2-0.7,1.9-0.7c0.5,0,1.1,0.1,1.5,0.5c0.4,0.3,0.7,0.8,0.8,1.3
			c0.1,0.7,0.2,1.4,0.1,2.1v4.3h1.1v-4.6c0-0.9-0.1-1.8-0.4-2.7C211.4,48,211,47.5,210.5,47.2z"/>
		<polygon class="st0" points="237.4,43.7 232.5,53.7 227.5,43.7 227.3,43.7 225.6,55.9 226.8,55.9 228,47.1 232.3,55.9 232.6,55.9 
			236.9,47.2 238.1,55.9 239.3,55.9 237.6,43.7 		"/>
		<path class="st0" d="M252.7,48.4c-0.9-1.1-2.2-1.8-3.7-1.7c-1.4-0.1-2.7,0.6-3.6,1.7c-1.5,1.9-1.4,4.5,0.2,6.3
			c0.9,1,2.1,1.5,3.4,1.4c0.6,0,1.2-0.1,1.8-0.3c0.5-0.2,1-0.5,1.4-0.9c0.5-0.4,0.8-0.9,1.1-1.5l-1-0.5c-0.3,0.5-0.6,0.9-1,1.3
			c-0.3,0.3-0.7,0.5-1.1,0.6c-0.4,0.1-0.9,0.2-1.3,0.2c-0.9,0-1.8-0.3-2.4-1c-0.7-0.7-1-1.6-1-2.6h8.1
			C253.7,50.3,253.4,49.3,252.7,48.4z M245.7,50.5c0.2-0.7,0.5-1.3,1-1.9c0.6-0.6,1.4-0.9,2.3-0.8c0.5,0,1.1,0.1,1.5,0.3
			c0.5,0.2,0.9,0.5,1.2,0.9c0.3,0.4,0.6,0.9,0.7,1.5H245.7z"/>
		<path class="st0" d="M267.1,48.4c-0.9-1.1-2.2-1.8-3.7-1.7c-1.4-0.1-2.7,0.6-3.6,1.7c-1.5,1.9-1.4,4.5,0.2,6.3
			c0.9,1,2.1,1.5,3.4,1.4c0.6,0,1.2-0.1,1.8-0.3c0.5-0.2,1-0.5,1.4-0.9c0.5-0.4,0.8-0.9,1.1-1.5l-1-0.5c-0.3,0.5-0.6,0.9-1,1.3
			c-0.3,0.3-0.7,0.5-1.1,0.6c-0.4,0.2-0.9,0.2-1.3,0.2c-0.9,0-1.7-0.4-2.3-1c-0.7-0.7-1-1.6-1-2.6h8.1
			C268.1,50.3,267.7,49.3,267.1,48.4z M260.1,50.5c0.2-0.7,0.5-1.3,1-1.9c0.6-0.6,1.4-0.9,2.3-0.8c0.5,0,1.1,0.1,1.5,0.3
			c0.5,0.2,0.9,0.5,1.2,0.9c0.3,0.4,0.6,0.9,0.7,1.5H260.1z"/>
		<polygon class="st0" points="275.8,43.5 274.6,43.5 274.6,46.9 273,46.9 273,47.9 274.6,47.9 274.6,55.9 275.8,55.9 275.8,47.9 
			277.6,47.9 277.6,46.9 275.8,46.9 		"/>
		<path class="st0" d="M285,50.8c-0.5-0.2-1-0.6-1.4-1c-0.2-0.2-0.3-0.5-0.3-0.8c0-0.3,0.1-0.6,0.4-0.9c0.3-0.3,0.6-0.4,1-0.4
			c0.7,0.1,1.4,0.4,1.8,0.9l0.7-0.8c-0.6-0.7-1.5-1.2-2.5-1.2c-0.7,0-1.3,0.2-1.8,0.7c-0.5,0.4-0.7,1.1-0.7,1.7c0,0.5,0.1,1,0.4,1.4
			c0.5,0.5,1,0.9,1.6,1.2c0.5,0.3,1,0.6,1.5,1c0.5,0.6,0.4,1.4-0.2,1.9l0,0c-0.3,0.3-0.7,0.5-1.2,0.5c-0.7,0-1.4-0.4-1.9-1l-0.7,0.8
			c0.3,0.4,0.7,0.7,1.2,0.9c0.5,0.2,1,0.3,1.5,0.3c0.7,0,1.4-0.3,1.9-0.8c0.5-0.5,0.8-1.2,0.8-1.9c0-0.5-0.2-1-0.5-1.4
			C286.3,51.5,285.7,51.1,285,50.8z"/>
		<path class="st0" d="M304,49c-0.9-0.7-1.4-1.1-1.6-1.2c-0.2-0.2-0.5-0.5-0.6-0.8c-0.1-0.2-0.2-0.5-0.2-0.8c0-0.4,0.2-0.8,0.5-1.1
			c0.3-0.3,0.8-0.5,1.2-0.5c0.4,0,0.7,0.1,1,0.3c0.5,0.3,0.8,0.7,1.2,1.2l1-0.8c-0.4-0.6-0.9-1.1-1.5-1.6c-0.5-0.3-1-0.4-1.6-0.4
			c-0.5,0-1,0.1-1.5,0.4c-0.4,0.2-0.8,0.6-1.1,1c-0.2,0.4-0.4,0.9-0.4,1.5c0,0.7,0.2,1.3,0.6,1.8c0.6,0.6,1.2,1.2,1.9,1.7
			c0.8,0.6,1.4,1.2,2,2c0.3,0.3,0.4,0.8,0.4,1.2c0,0.4-0.1,0.7-0.3,1c-0.2,0.3-0.5,0.6-0.8,0.8c-0.4,0.2-0.7,0.3-1.1,0.3
			c-1,0-1.8-0.7-2.5-2l-1,0.6c0.4,0.8,1,1.5,1.7,2c0.6,0.4,1.3,0.6,2,0.6c0.9,0,1.8-0.4,2.4-1c0.6-0.6,1-1.4,1-2.3
			c0-0.7-0.2-1.3-0.6-1.8C305.6,50.3,304.8,49.6,304,49z"/>
		<polygon class="st0" points="314.7,43.5 313.5,43.5 313.5,46.9 311.9,46.9 311.9,47.9 313.5,47.9 313.5,55.9 314.7,55.9 
			314.7,47.9 316.5,47.9 316.5,46.9 314.7,46.9 		"/>
		<path class="st0" d="M323.5,47c-0.4,0.3-0.8,0.7-1.1,1.2v-1.3h-1.2v9h1.2v-3c0-1,0-2.1,0.2-3.1c0.1-0.6,0.4-1.1,0.8-1.5
			c0.4-0.5,1.1-0.6,1.7-0.3l0.6-1C325,46.6,324.1,46.6,323.5,47L323.5,47z"/>
		<path class="st0" d="M336.6,51.1c0,0.7,0,1.5-0.2,2.2c-0.2,0.5-0.5,0.9-0.9,1.2c-0.5,0.3-1.1,0.5-1.6,0.5c-0.6,0-1.2-0.2-1.7-0.5
			c-0.5-0.3-0.8-0.8-0.9-1.3c-0.1-0.7-0.2-1.4-0.2-2.1v-4.2h-1.1v4.3c-0.1,1,0.1,2,0.4,2.9c0.3,0.6,0.7,1.1,1.3,1.5
			c0.7,0.4,1.4,0.6,2.2,0.5c0.8,0,1.5-0.2,2.2-0.5c0.6-0.3,1-0.9,1.3-1.5c0.3-0.9,0.5-1.8,0.4-2.8v-4.4h-1.2L336.6,51.1z"/>
		<path class="st0" d="M348.3,47.7c1.3,0,2.5,0.5,3.2,1.6l0.9-0.6c-0.3-0.4-0.6-0.8-1-1.1c-0.4-0.3-0.9-0.6-1.4-0.7
			c-0.6-0.2-1.1-0.3-1.7-0.3c-0.9,0-1.8,0.2-2.6,0.6c-0.7,0.4-1.3,1-1.7,1.7c-0.4,0.7-0.7,1.6-0.6,2.4c0,1.2,0.5,2.4,1.4,3.3
			c0.9,0.9,2.2,1.4,3.5,1.3c0.9,0,1.7-0.2,2.5-0.5c0.7-0.3,1.3-0.9,1.7-1.5l-0.9-0.6c-1.2,1.6-3.4,2-5.2,1.1
			c-0.6-0.3-1.1-0.8-1.4-1.3c-0.3-0.6-0.5-1.2-0.5-1.8c0-1,0.4-1.9,1.1-2.6C346.3,48.1,347.3,47.7,348.3,47.7z"/>
		<polygon class="st0" points="360.2,43.5 359,43.5 359,46.9 357.5,46.9 357.5,47.9 359,47.9 359,55.9 360.2,55.9 360.2,47.9 
			362,47.9 362,46.9 360.2,46.9 		"/>
		<path class="st0" d="M373.7,51.1c0,0.7,0,1.5-0.2,2.2c-0.2,0.5-0.5,0.9-0.9,1.2c-1,0.6-2.3,0.6-3.3,0c-0.5-0.3-0.8-0.8-1-1.3
			c-0.1-0.7-0.2-1.4-0.2-2.1v-4.2H367v4.3c-0.1,1,0.1,2,0.4,2.9c0.3,0.6,0.7,1.1,1.3,1.5c0.7,0.4,1.4,0.6,2.2,0.5
			c0.8,0,1.5-0.2,2.2-0.5c0.6-0.3,1-0.9,1.3-1.5c0.3-0.9,0.5-1.8,0.4-2.8v-4.4h-1.2L373.7,51.1z"/>
		<path class="st0" d="M382.6,47c-0.5,0.3-0.8,0.7-1.1,1.2v-1.3h-1.2v9h1.2v-3c0-1,0-2.1,0.2-3.1c0.1-0.6,0.4-1.1,0.8-1.5
			c0.3-0.3,0.7-0.5,1.1-0.5c0.2,0,0.4,0.1,0.6,0.2l0.6-1c-0.3-0.2-0.6-0.3-1-0.3C383.5,46.7,383,46.8,382.6,47z"/>
		<path class="st0" d="M395.8,54.2c-0.3,0.3-0.7,0.5-1.1,0.6c-0.4,0.2-0.9,0.2-1.3,0.2c-0.9,0-1.8-0.4-2.4-1c-0.7-0.7-1-1.6-1-2.6
			h8.1c0-1.1-0.3-2.2-1-3.1c-0.9-1.1-2.2-1.8-3.7-1.7c-1.4,0-2.7,0.6-3.6,1.7c-0.7,0.9-1.1,1.9-1,3c0,1.2,0.4,2.4,1.2,3.2
			c0.9,1,2.1,1.5,3.4,1.4c0.6,0,1.2-0.1,1.8-0.3c0.5-0.2,1-0.5,1.4-0.9c0.5-0.4,0.8-0.9,1.1-1.5l-1-0.5
			C396.5,53.3,396.2,53.8,395.8,54.2z M391.2,48.6c0.6-0.6,1.4-0.9,2.3-0.8c0.5,0,1.1,0.1,1.5,0.3c0.5,0.2,0.9,0.5,1.2,0.9
			c0.3,0.4,0.6,0.9,0.7,1.5h-6.7C390.3,49.8,390.6,49.1,391.2,48.6L391.2,48.6z"/>
	</g>
</g>
</svg>
